<svg xmlns="http://www.w3.org/2000/svg" viewBox="0 0 680 380" role="img"><title>Ship, finish, defer</title><style>text{font-family:ui-sans-serif,system-ui,-apple-system,"Segoe UI",Roboto,sans-serif}.th{font-size:14px;fill:#1f2937}.ts{font-size:12px;fill:#6b7280}.teal{fill:#ccfbf1;stroke:#14b8a6;stroke-width:1}.coral{fill:#ffe4e6;stroke:#f43f5e;stroke-width:1}.purple{fill:#ede9fe;stroke:#8b5cf6;stroke-width:1}.gray{fill:#f3f4f6;stroke:#9ca3af;stroke-width:1}.arr{stroke:#9ca3af;stroke-width:1.5;fill:none}.dash{fill:none;stroke:#d1d5db;stroke-width:1;stroke-dasharray:4 4}</style><defs><marker id="a" viewBox="0 0 10 10" refX="8" refY="5" markerWidth="6" markerHeight="6" orient="auto-start-reverse"><path d="M2 1L8 5L2 9" fill="none" stroke="#9ca3af" stroke-width="1.5" stroke-linecap="round"/></marker></defs><rect width="100%" height="100%" fill="#ffffff"/>
<rect x="40" y="30" width="185" height="270" rx="20" class="dash"/><rect x="248" y="30" width="185" height="270" rx="20" class="dash"/><rect x="456" y="30" width="184" height="270" rx="20" class="dash"/>
<text class="th" x="132" y="63" text-anchor="middle">Ship as is</text><text class="th" x="340" y="63" text-anchor="middle">One last pass</text><text class="th" x="548" y="63" text-anchor="middle">Next project</text>
<rect class="teal" x="55" y="88" width="155" height="40" rx="8"/><text class="th" x="132" y="113" text-anchor="middle">Freshness core</text>
<rect class="teal" x="55" y="140" width="155" height="40" rx="8"/><text class="th" x="132" y="165" text-anchor="middle">90ms read path</text>
<rect class="teal" x="55" y="192" width="155" height="40" rx="8"/><text class="th" x="132" y="217" text-anchor="middle">The negative log</text>
<rect class="teal" x="55" y="244" width="155" height="40" rx="8"/><text class="th" x="132" y="269" text-anchor="middle">Bench numbers</text>
<rect class="purple" x="263" y="88" width="155" height="40" rx="8"/><text class="th" x="340" y="113" text-anchor="middle">Bench via recall</text>
<rect class="purple" x="263" y="140" width="155" height="40" rx="8"/><text class="th" x="340" y="165" text-anchor="middle">Paraphrase tests</text>
<rect class="purple" x="263" y="192" width="155" height="40" rx="8"/><text class="th" x="340" y="217" text-anchor="middle">In-process embed</text>
<rect class="purple" x="263" y="244" width="155" height="40" rx="8"/><text class="th" x="340" y="269" text-anchor="middle">Gate features</text>
<rect x="471" y="88" width="154" height="40" rx="8" class="dash"/><text class="ts" x="548" y="113" text-anchor="middle">Entity ids</text>
<rect x="471" y="140" width="154" height="40" rx="8" class="dash"/><text class="ts" x="548" y="165" text-anchor="middle">Resolver split</text>
<rect x="471" y="192" width="154" height="40" rx="8" class="dash"/><text class="ts" x="548" y="217" text-anchor="middle">Learned matcher</text>
<rect x="471" y="244" width="154" height="40" rx="8" class="dash"/><text class="ts" x="548" y="269" text-anchor="middle">New corpus</text>
<text class="ts" x="340" y="340" text-anchor="middle">The middle column is weekends. The right column is a different project.</text></svg>
